<?xml version="1.0" standalone="no"?>
<!DOCTYPE svg PUBLIC "-//W3C//DTD SVG 20010904//EN"
 "http://www.w3.org/TR/2001/REC-SVG-20010904/DTD/svg10.dtd">
<svg version="1.0" xmlns="http://www.w3.org/2000/svg"
 width="512.000000pt" height="512.000000pt" viewBox="0 0 512.000000 512.000000"
 preserveAspectRatio="xMidYMid meet">

<g transform="translate(0.000000,512.000000) scale(0.100000,-0.100000)"
fill="#000000" stroke="none">
<path d="M825 4586 c-119 -55 -358 -375 -514 -686 -506 -1012 -382 -2286 306
-3143 159 -198 221 -246 314 -247 65 0 110 22 159 77 69 79 85 116 85 208 0
97 -13 123 -115 245 -279 331 -463 758 -527 1220 -22 159 -22 487 1 643 67
462 240 860 521 1192 108 127 120 152 120 250 0 96 -21 142 -89 202 -76 67
-172 81 -261 39z"/>
<path d="M4112 4597 c-45 -14 -118 -80 -145 -131 -17 -32 -22 -58 -22 -121 0
-97 8 -114 117 -247 289 -355 461 -755 525 -1218 22 -160 22 -487 -1 -644 -65
-451 -241 -861 -503 -1170 -127 -150 -149 -197 -140 -297 6 -66 30 -117 87
-182 49 -55 94 -77 159 -77 94 1 157 51 319 253 613 768 781 1880 428 2837
-119 320 -326 671 -532 899 -90 99 -187 132 -292 98z"/>
<path d="M1607 3836 c-63 -17 -105 -49 -168 -126 -405 -502 -503 -1218 -252
-1830 67 -161 144 -289 269 -445 76 -95 107 -119 164 -128 80 -14 153 24 226
115 59 75 78 132 72 212 -6 75 -29 120 -107 211 -188 219 -283 506 -267 810
13 268 102 496 271 696 80 95 96 129 103 205 8 111 -42 206 -135 256 -61 32
-115 40 -176 24z"/>
<path d="M3360 3800 c-96 -45 -150 -124 -158 -231 -6 -87 18 -140 122 -268
352 -437 339 -1074 -30 -1501 -72 -84 -98 -147 -92 -229 14 -192 205 -324 364
-252 75 34 230 246 325 445 123 258 179 508 179 796 0 293 -77 608 -206 846
-101 185 -228 350 -296 385 -62 32 -151 35 -208 9z"/>
<path d="M2436 3064 c-81 -19 -171 -72 -235 -135 -201 -202 -200 -519 4 -721
238 -236 635 -178 800 117 215 384 -139 843 -569 739z"/>
</g>
</svg>
